PathFileType	4	(X/Y/Z)	C:/Users/beibeiliu/ov580/test_trc\sequence.22_training_dense_left.trc
DataRate	CameraRate	NumFrames	NumMarkers	Units	OrigDataRate	OrigDataStartFrame	OrigNumFrames
120	120	13	19	mm	120	1	324
Frame#	Time	ThumbCMC			ThumbMCP			ThumbIP			ThumbTip			IndexMCP			IndexPIP			IndexTip			MiddleMCP			MiddlePIP			MiddleTip			RingMCP			RingPIP			RingTip			PinkyMCP			PinkyPIP			PinkyTip			BackHand1			BackHand2			BackHand3	
		X0	Y0	Z0	X1	Y1	Z1	X2	Y2	Z2	X3	Y3	Z3	X4	Y4	Z4	X5	Y5	Z5	X6	Y6	Z6	X7	Y7	Z7	X8	Y8	Z8	X9	Y9	Z9	X10	Y10	Z10	X11	Y11	Z11	X12	Y12	Z12	X13	Y13	Z13	X14	Y14	Z14	X15	Y15	Z15	X16	Y16	Z16	X17	Y17	Z17	X18	Y18	Z18	
0	0	-184.861	6.64957	32.087	-170.614	-6.99147	16.3381	-152.704	-10.3485	1.71502	-137.355	-13.9171	-11.9775	-190.927	5.85956	-36.0152	-182.596	-1.13111	-55.9681	-174.411	-10.2058	-81.2871	-213.554	3.8829	-44.2021	-214.193	-1.95436	-67.9383	-216.028	-10.9719	-92.1225	-232.767	0.745207	-39.3201	-235.649	-2.647	-56.9955	-238.874	-7.73334	-77.504	-255.206	-5.62254	-23.9411	-259.262	-9.65479	-37.6711	-263.395	-11.1565	-58.4593	-233.396	16.2014	1.95061	-235.603	23.1381	31.999	-209.466	24.0536	15.735	
1	0.00833333	-187.763	5.58985	30.281	-170.788	-6.18085	15.594	-158.764	-11.3346	-0.416118	-139.7	-14.8713	-12.1128	-192.516	5.68066	-37.2523	-184.877	-1.60153	-60.2091	-177.755	-11.3628	-82.0733	-214.328	3.33486	-46.3331	-214.863	-1.4042	-65.1615	-217.89	-11.1962	-91.7504	-238.524	0.498573	-36.6842	-236.112	-3.52468	-57.0638	-240.322	-7.94347	-82.138	-253.167	-5.70785	-20.337	-262.595	-10.8572	-41.9039	-267.535	-10.5962	-55.8905	-237.225	14.8615	6.03805	-235.995	23.3902	29.5613	-209.901	22.6344	14.6187	
2	0.0166667	-189.426	4.96649	32.7327	-174.513	-6.84081	18.1855	-155.601	-11.6272	-1.48957	-144.595	-15.3675	-9.20361	-187.858	4.51921	-39.0701	-186.427	-2.02447	-57.4045	-175.62	-9.91809	-76.8967	-217.926	3.88641	-42.6491	-216.303	-2.35814	-65.8052	-216.062	-10.3936	-89.7213	-234.275	0.792215	-34.7299	-237.695	-5.10912	-61.0149	-241.888	-9.08916	-80.4988	-256.074	-5.58325	-21.2276	-262.926	-11.5917	-39.2557	-266.628	-13.1591	-55.9253	-239.073	15.1528	5.66631	-236.55	21.4623	29.906	-212.957	22.3505	17.8056	
3	0.025	-186.45	5.62795	28.3893	-174.895	-6.92142	15.0789	-158.434	-11.5992	-0.144149	-144.735	-15.3005	-7.30348	-191.309	4.23671	-38.9269	-182.21	-2.32931	-59.664	-181.668	-10.3544	-76.6146	-216.266	3.90117	-41.2483	-217.321	-3.26173	-67.5942	-219.553	-11.204	-90.0659	-234.734	0.348726	-37.4038	-239.034	-5.35366	-59.4394	-239.766	-8.41918	-75.668	-251.838	-5.82741	-20.7372	-259.342	-9.784	-39.9928	-267.896	-10.665	-55.4038	-237.676	13.8008	3.05515	-241.013	21.2322	28.5279	-212.002	22.7044	14.9098	
4	0.0333333	-191.633	5.33485	31.3293	-173.684	-6.80964	13.3972	-156.798	-11.3355	1.94554	-142.037	-14.8726	-7.6943	-189.77	5.96233	-35.7135	-185.201	-0.704399	-55.5868	-177.421	-8.86961	-75.8705	-214.692	4.08757	-47.3799	-214.93	-4.24519	-69.7354	-217.562	-9.53305	-88.85	-239.866	-1.11137	-36.2757	-238.693	-4.82313	-61.2638	-242.843	-9.94538	-80.1956	-258.181	-7.35102	-21.9849	-258.522	-10.2122	-39.0868	-268.978	-10.8484	-55.6964	-239.291	15.3807	3.16648	-235.999	22.3909	27.1073	-213.367	21.8732	14.6116	
5	0.0416667	-191.114	5.67846	27.0989	-175.285	-6.1193	13.8529	-158.436	-10.9407	-2.58131	-141.688	-14.3701	-8.48843	-189.876	6.05092	-34.602	-187.768	-3.008	-59.8412	-178.69	-9.7639	-75.9066	-219.233	2.48908	-46.1171	-216.435	-3.09675	-67.2331	-221.081	-11.1466	-89.734	-241.105	-1.22296	-36.2301	-242.501	-5.8608	-60.5579	-244.896	-10.0154	-76.9565	-256.703	-6.16824	-22.0573	-259.215	-10.2969	-36.9674	-269.665	-13.606	-54.5647	-236.805	15.8019	6.76613	-239.087	21.4818	29.0544	-210.913	22.6591	16.0032	
6	0.05	-188.786	6.95715	27.7699	-172.687	-5.59904	13.8528	-161.023	-12.2606	1.28131	-144.948	-14.4662	-8.83269	-192.936	5.28497	-40.0965	-185.141	-1.17122	-55.2239	-180.906	-9.79994	-76.4438	-220.161	2.94289	-46.5333	-216.287	-2.01583	-64.9936	-219.058	-10.2082	-91.8306	-236.298	0.313207	-34.5535	-240.904	-5.17335	-57.7314	-241.699	-8.46469	-81.1606	-258.939	-6.87222	-21.558	-263.538	-11.7409	-41.3194	-270.32	-13.2608	-56.1864	-235.714	14.4016	7.46664	-240.934	21.9939	30.7188	-214.687	24.6789	17.0248	
7	0.0583333	-189.841	8.72283	32.2523	-174.431	-4.9549	16.4458	-156.664	-9.38924	-1.36465	-142.429	-12.9326	-7.65275	-192.203	7.95125	-39.013	-183.569	-1.14646	-59.8329	-181.573	-8.47153	-77.1455	-218.324	4.49275	-46.5472	-217.104	-1.75107	-66.271	-214.852	-11.6681	-94.4523	-236.234	1.33165	-36.4238	-242.863	-5.49444	-58.4708	-243.065	-9.4617	-77.6455	-259.406	-5.74222	-24.6869	-261.278	-10.5159	-38.9282	-269.886	-14.4961	-59.8425	-241.529	14.9435	6.84836	-241.208	22.2663	28.614	-212.335	26.8088	16.0577	
8	0.0666667	-190.565	8.68194	28.8782	-175.373	-4.2798	12.6522	-161.812	-9.07863	-1.96622	-143.623	-12.2676	-14.1774	-193.038	10.8192	-37.0873	-185.009	1.46057	-61.585	-175.59	-9.02437	-80.5329	-218.077	7.56046	-43.824	-219.344	-1.90191	-70.4706	-216.614	-11.803	-92.3194	-238.516	2.354	-38.6175	-241.909	-4.06524	-59.139	-238.95	-9.6245	-81.5634	-258.491	-4.71767	-21.0582	-260.773	-9.54451	-39.0845	-269.114	-14.4319	-59.0773	-239.324	15.7034	4.88948	-242.739	22.4222	31.2879	-214.797	25.5504	16.9782	
9	0.075	-193.268	10.4307	30.2259	-172.084	-1.92456	14.0153	-158.402	-6.13511	0.768543	-148.02	-12.37	-13.391	-191.864	13.0993	-37.9379	-188.331	5.83752	-57.8714	-179.569	-5.01107	-79.062	-216.359	10.126	-46.2834	-214.47	2.2066	-69.049	-213.944	-11.0867	-90.8126	-235.198	5.26641	-40.36	-241.829	-2.06021	-58.4266	-238.311	-10.3692	-80.1424	-253.769	-2.53665	-22.3137	-261.381	-10.3274	-42.4334	-264.54	-15.5606	-60.0098	-242.688	17.4543	5.28228	-242.827	24.0796	27.2787	-214.646	28.0153	17.9612	
10	0.0833333	-191.16	13.5707	28.4276	-174.116	0.867502	13.831	-159.513	-4.54244	-2.45016	-144.871	-9.40843	-16.142	-193.816	15.2601	-39.1565	-184.753	8.46407	-57.9899	-178.419	-4.26671	-80.2931	-216.791	12.3201	-47.8452	-213.54	3.88946	-68.2986	-213.962	-12.9698	-89.9946	-240.244	4.77452	-38.2276	-239.181	-1.39101	-59.9385	-233.545	-11.9745	-82.1848	-252.978	-2.0711	-23.5225	-258.643	-9.37978	-43.798	-259.966	-17.5092	-61.0946	-242.897	18.4616	5.58837	-242.566	23.5667	26.5726	-217.567	30.1246	16.8278	
11	0.0916667	-194.997	14.4434	30.9735	-171.943	3.52899	15.9697	-158.448	-1.54528	-0.991189	-149.215	-7.82502	-16.3569	-191.74	19.5819	-38.723	-182.839	11.2439	-59.6236	-177.149	0.296378	-76.0701	-215.881	15.4765	-44.6907	-212.813	4.39002	-70.5695	-206.185	-16.9785	-90.0969	-237.174	7.20048	-36.7816	-232.416	0.0465118	-60.1714	-229.254	-13.8517	-78.4955	-251.053	-0.653965	-29.5782	-253.202	-7.90405	-43.6144	-255.199	-20.8421	-63.9027	-243.147	21.1104	3.38449	-246.119	25.1187	28.176	-215.039	30.9928	15.9647	
12	0.1	-194.802	18.5565	26.8335	-176.863	4.62553	13.0586	-157.992	0.0443969	-1.24955	-145.705	-4.90632	-16.0594	-189.909	24.6795	-38.7741	-179.425	17.2354	-57.7087	-172.976	4.90379	-73.5663	-212.316	19.1168	-46.1517	-208.177	5.14835	-70.8902	-201.93	-15.8039	-84.2653	-236.367	9.65458	-38.9184	-225.784	0.690411	-63.2583	-219.125	-16.4251	-76.8455	-251.355	-0.793113	-25.6377	-250.389	-7.80163	-44.5642	-244.014	-21.444	-65.6475	-238.223	21.5811	2.45081	-244.171	25.9532	30.5688	-218.147	32.875	18.5246	
